<svg xmlns="http://www.w3.org/2000/svg" width="600" height="400" viewBox="0 0 600 400"><rect width="100%" height="100%" fill="#DDDDDD"/><path fill="#999999" d="M122.65 175.935v-6.48h24.52v6.48zm54.82 49.89-23.78-61.05h4.35q1.8 0 3.15.93 1.36.92 2.01 2.64l23.95 61.26h-4.31q-1.6 0-3.13-.95-1.54-.94-2.24-2.83m15.01 5.37h32.31v6.56h-32.31zm47.07-31.2q0 8.45 2.05 16.61t5.86 15.33q.41.82.47 1.46.06.63-.1 1.1-.17.48-.51.82-.35.35-.76.6l-4.51 2.75q-3.04-4.68-5.17-9.39-2.13-4.72-3.48-9.52-1.36-4.79-1.99-9.71-.64-4.92-.64-10.05 0-5.12.64-10.06.63-4.94 1.99-9.74 1.35-4.8 3.48-9.49 2.13-4.7 5.17-9.37l4.51 2.71q.41.24.76.59.34.35.51.82.16.47.1 1.11-.06.63-.47 1.49-3.81 7.14-5.86 15.32t-2.05 16.62m15.41 5.17v-8.45h21.24v8.45zm28.87 26.03h32.3v6.56h-32.3zm39.97-26.03v-8.45h21.24v8.45zm36.61-5.17q0-8.44-2.03-16.62t-5.84-15.32q-.45-.86-.51-1.49-.06-.64.1-1.11.17-.47.51-.82.35-.35.8-.59l4.51-2.71q3.04 4.67 5.17 9.37 2.13 4.69 3.48 9.49 1.36 4.8 1.97 9.74.62 4.94.62 10.06 0 5.13-.62 10.05-.61 4.92-1.97 9.71-1.35 4.8-3.48 9.52-2.13 4.71-5.17 9.39l-4.51-2.75q-.45-.25-.8-.6-.34-.34-.51-.82-.16-.47-.1-1.1.06-.64.51-1.46 3.81-7.17 5.84-15.33t2.03-16.61m14.76 31.2h32.31v6.56h-32.31zm71.14-66.42-23.78 61.05q-.7 1.89-2.24 2.83-1.53.95-3.13.95h-4.31l23.95-61.26q.65-1.72 2.01-2.64 1.35-.93 3.15-.93zm6.52 11.16v-6.48h24.52v6.48z"/></svg>