<svg xmlns="http://www.w3.org/2000/svg" width="600" height="400" viewBox="0 0 600 400">
    <rect width="100%" height="100%" fill="#DDDDDD" />
    <path fill="#999999"
        d="M122.55 174.17v-6.95h26.31v6.95zm58.83 53.55-25.52-65.51h4.66q1.94 0 3.39.99t2.15 2.83l25.7 65.74h-4.62q-1.72 0-3.37-1.01t-2.39-3.04m16.1 5.77h34.67v7.04h-34.67zM247.99 200q0 9.07 2.2 17.82 2.2 8.76 6.29 16.46.44.88.51 1.56t-.11 1.19q-.18.5-.55.88-.37.37-.81.64l-4.84 2.94q-3.26-5.01-5.55-10.07t-3.74-10.21-2.13-10.43-.68-10.78.68-10.8 2.13-10.45 3.74-10.19q2.29-5.03 5.55-10.05l4.84 2.9q.44.27.81.64.37.38.55.88.18.51.11 1.19t-.51 1.61q-4.09 7.65-6.29 16.43t-2.2 17.84m17.51-25.74-2.86-4.53q1.5-1.32 3.28-2.51t3.85-2.07 4.49-1.38q2.42-.51 5.24-.51 3.82 0 6.97 1.06 3.15 1.05 5.39 3.01t3.48 4.73q1.23 2.77 1.23 6.21 0 3.34-.97 5.78t-2.42 4.25q-1.45 1.8-3.19 3.12l-3.28 2.49q-1.54 1.16-2.66 2.29-1.12 1.12-1.34 2.53l-1.01 6.42h-7.44l-.75-7.17q-.26-2.07.6-3.63.85-1.56 2.28-2.86t3.19-2.51 3.3-2.64 2.58-3.21q1.03-1.78 1.03-4.25 0-1.58-.59-2.84-.6-1.25-1.65-2.15-1.06-.9-2.53-1.39-1.48-.48-3.19-.48-2.51 0-4.25.55t-2.95 1.23-2.04 1.23q-.84.55-1.5.55-1.58 0-2.29-1.32m5.46 47.35q0-1.37.51-2.6.5-1.23 1.38-2.11t2.11-1.41q1.24-.53 2.64-.53 1.41 0 2.62.53t2.11 1.41q.91.88 1.43 2.11.53 1.23.53 2.6 0 1.4-.53 2.61-.52 1.21-1.43 2.09-.9.88-2.11 1.39t-2.62.51q-1.4 0-2.64-.51-1.23-.51-2.11-1.39t-1.38-2.09q-.51-1.21-.51-2.61m35.02-47.35-2.86-4.53q1.5-1.32 3.28-2.51t3.85-2.07 4.49-1.38q2.42-.51 5.24-.51 3.82 0 6.97 1.06 3.15 1.05 5.39 3.01t3.48 4.73q1.23 2.77 1.23 6.21 0 3.34-.97 5.78t-2.42 4.25q-1.45 1.8-3.19 3.12l-3.28 2.49q-1.54 1.16-2.66 2.29-1.12 1.12-1.34 2.53l-1.01 6.42h-7.44l-.75-7.17q-.26-2.07.6-3.63.85-1.56 2.28-2.86t3.19-2.51 3.3-2.64 2.58-3.21q1.03-1.78 1.03-4.25 0-1.58-.59-2.84-.6-1.25-1.65-2.15-1.06-.9-2.53-1.39-1.48-.48-3.19-.48-2.51 0-4.25.55t-2.95 1.23-2.04 1.23q-.84.55-1.5.55-1.58 0-2.29-1.32m5.46 47.35q0-1.37.51-2.6.5-1.23 1.38-2.11t2.11-1.41q1.24-.53 2.64-.53 1.41 0 2.62.53t2.11 1.41q.91.88 1.43 2.11.53 1.23.53 2.6 0 1.4-.53 2.61-.52 1.21-1.43 2.09-.9.88-2.11 1.39t-2.62.51q-1.4 0-2.64-.51-1.23-.51-2.11-1.39t-1.38-2.09q-.51-1.21-.51-2.61M351.96 200q0-9.06-2.17-17.84-2.18-8.78-6.27-16.43-.49-.93-.55-1.61-.07-.68.11-1.19.17-.5.55-.88.37-.37.85-.64l4.84-2.9q3.26 5.02 5.55 10.05 2.29 5.04 3.74 10.19t2.11 10.45.66 10.8-.66 10.78-2.11 10.43-3.74 10.21-5.55 10.07l-4.84-2.94q-.48-.27-.85-.64-.38-.38-.55-.88-.18-.51-.11-1.19.06-.68.55-1.56 4.09-7.7 6.27-16.46 2.17-8.75 2.17-17.82m15.84 33.49h34.68v7.04H367.8zm76.34-71.28-25.52 65.51q-.74 2.03-2.39 3.04t-3.37 1.01h-4.62l25.7-65.74q.7-1.84 2.15-2.83t3.39-.99zm7 11.96v-6.95h26.31v6.95z" />
</svg>